<!-- Generated by IcoMoon.io -->
<svg version="1.1" xmlns="http://www.w3.org/2000/svg" width="1024" height="1024" viewBox="0 0 1024 1024">
<title></title>
<g id="icomoon-ignore">
</g>
<path fill="#000" d="M528.93 704c97.202 0 176-78.798 176-176s-78.798-176-176-176c-97.202 0-176 78.798-176 176s78.798 176 176 176v0zM528.93 224c-8.837 0-16 6.904-16 15.852v64.295c0 8.755 7.422 15.852 16 15.852 8.837 0 16-6.904 16-15.852v-64.295c0-8.755-7.422-15.852-16-15.852v0zM744.548 313.312c-6.248-6.248-16.196-6.432-22.523-0.104l-45.464 45.464c-6.191 6.191-5.961 16.457 0.104 22.523 6.248 6.248 16.196 6.432 22.523 0.104l45.464-45.464c6.191-6.191 5.961-16.457-0.104-22.523v0zM833.859 528.93c0-8.837-6.904-16-15.852-16h-64.295c-8.755 0-15.852 7.422-15.852 16 0 8.837 6.904 16 15.852 16h64.295c8.755 0 15.852-7.422 15.852-16v0zM744.548 744.548c6.248-6.248 6.432-16.196 0.104-22.523l-45.464-45.464c-6.191-6.191-16.457-5.961-22.523 0.104-6.248 6.248-6.432 16.196-0.104 22.523l45.464 45.464c6.191 6.191 16.457 5.961 22.523-0.104v0zM528.93 833.859c8.837 0 16-6.904 16-15.852v-64.295c0-8.755-7.422-15.852-16-15.852-8.837 0-16 6.904-16 15.852v64.295c0 8.755 7.422 15.852 16 15.852v0zM313.312 744.548c6.248 6.248 16.196 6.432 22.523 0.104l45.464-45.464c6.191-6.191 5.961-16.457-0.104-22.523-6.248-6.248-16.196-6.432-22.523-0.104l-45.464 45.464c-6.191 6.191-5.961 16.457 0.104 22.523v0zM224 528.93c0 8.837 6.904 16 15.852 16h64.295c8.755 0 15.852-7.422 15.852-16 0-8.837-6.904-16-15.852-16h-64.295c-8.755 0-15.852 7.422-15.852 16v0zM313.312 313.312c-6.248 6.248-6.432 16.196-0.104 22.523l45.464 45.464c6.191 6.191 16.457 5.961 22.523-0.104 6.248-6.248 6.432-16.196 0.104-22.523l-45.464-45.464c-6.191-6.191-16.457-5.961-22.523 0.104v0z"></path>
</svg>
